<?xml version="1.0" standalone="no"?>
<svg xmlns:xlink="http://www.w3.org/1999/xlink" id="wave" style="transform:rotate(0deg); transition: 0.3s" viewBox="0 0 1440 490" version="1.1" xmlns="http://www.w3.org/2000/svg"><defs><linearGradient id="sw-gradient-0" x1="0" x2="0" y1="1" y2="0"><stop stop-color="rgba(62, 181.687, 243, 1)" offset="0%"/><stop stop-color="rgba(11, 81.428, 255, 1)" offset="100%"/></linearGradient></defs><path style="transform:translate(0, 0px); opacity:1" fill="url(#sw-gradient-0)" d="M0,196L60,236.8C120,278,240,359,360,375.7C480,392,600,343,720,302.2C840,261,960,229,1080,187.8C1200,147,1320,98,1440,89.8C1560,82,1680,114,1800,171.5C1920,229,2040,310,2160,318.5C2280,327,2400,261,2520,245C2640,229,2760,261,2880,269.5C3000,278,3120,261,3240,236.8C3360,212,3480,180,3600,138.8C3720,98,3840,49,3960,98C4080,147,4200,294,4320,302.2C4440,310,4560,180,4680,163.3C4800,147,4920,245,5040,310.3C5160,376,5280,408,5400,416.5C5520,425,5640,408,5760,400.2C5880,392,6000,392,6120,400.2C6240,408,6360,425,6480,424.7C6600,425,6720,408,6840,359.3C6960,310,7080,229,7200,171.5C7320,114,7440,82,7560,89.8C7680,98,7800,147,7920,147C8040,147,8160,98,8280,89.8C8400,82,8520,114,8580,130.7L8640,147L8640,490L8580,490C8520,490,8400,490,8280,490C8160,490,8040,490,7920,490C7800,490,7680,490,7560,490C7440,490,7320,490,7200,490C7080,490,6960,490,6840,490C6720,490,6600,490,6480,490C6360,490,6240,490,6120,490C6000,490,5880,490,5760,490C5640,490,5520,490,5400,490C5280,490,5160,490,5040,490C4920,490,4800,490,4680,490C4560,490,4440,490,4320,490C4200,490,4080,490,3960,490C3840,490,3720,490,3600,490C3480,490,3360,490,3240,490C3120,490,3000,490,2880,490C2760,490,2640,490,2520,490C2400,490,2280,490,2160,490C2040,490,1920,490,1800,490C1680,490,1560,490,1440,490C1320,490,1200,490,1080,490C960,490,840,490,720,490C600,490,480,490,360,490C240,490,120,490,60,490L0,490Z"/></svg>